<svg width="24" height="24" viewBox="0 0 24 24" fill="none" xmlns="http://www.w3.org/2000/svg">
<circle cx="12" cy="12" r="12" fill="#2ECC71"/>
<path d="M15.5037 5C15.5037 5 14.3518 6.11753 13.1061 6.56808C3.88092 9.90485 7.77156 16.4073 7.89849 16.4287C7.89849 16.4287 8.41579 15.5279 9.11459 15.014C13.5489 11.7542 14.4501 8.00198 14.4501 8.00198C14.4501 8.00198 13.4551 12.5171 9.51012 15.3266C8.63882 15.9467 8.04885 17.4738 7.79911 19C7.79911 19 8.41673 18.7505 8.68232 18.6829C8.78588 18.007 9.00241 17.3599 9.36849 16.7818C14.882 17.4382 16.6878 12.9955 16.9237 11.4464C17.4805 7.7876 15.5037 5 15.5037 5Z" fill="white"/>
</svg>
