<svg width="24" height="24" viewBox="0 0 24 24" fill="none" xmlns="http://www.w3.org/2000/svg">
<circle cx="12" cy="12" r="12" fill="#FFC22B"/>
<g clip-path="url(#clip0_10_3017)">
<path d="M15.8572 8.14285C15.9361 8.13901 16.0151 8.13708 16.0943 8.13708C16.6149 8.13708 17.1227 8.22018 17.6026 8.37997C18.1052 7.70503 18.3769 6.89006 18.3769 6.03333C18.3769 5.80688 18.1933 5.62317 17.9668 5.62317C17.0885 5.62317 16.2767 5.91209 15.6208 6.3998C15.7801 6.87906 15.863 7.38609 15.863 7.90584C15.863 7.98499 15.8611 8.06403 15.8572 8.14285Z" fill="white"/>
<path d="M8.99828 14.9964C8.9015 14.8994 8.81018 14.7993 8.72356 14.6963L5.12016 18.2998C4.95995 18.4599 4.95995 18.7197 5.12016 18.8798C5.20027 18.9599 5.30516 18.9999 5.41016 18.9999C5.51515 18.9999 5.62004 18.9599 5.70015 18.8798L9.30344 15.2765C9.1993 15.1887 9.09825 15.0964 9.00095 14.999C9.00009 14.9981 8.99913 14.9973 8.99828 14.9964Z" fill="white"/>
<path d="M13.8806 8.71928C13.9338 8.95587 13.9681 9.19513 13.9848 9.43503L15.0109 8.40921C15.0319 8.24344 15.0427 8.07542 15.0427 7.9057C15.0427 6.8535 14.633 5.86421 13.8889 5.12016C13.8119 5.04315 13.7077 5 13.5988 5C13.4901 5 13.3857 5.04315 13.3088 5.12016C12.9613 5.46773 12.6868 5.8688 12.4927 6.30481C12.5318 6.33546 12.5695 6.36826 12.605 6.40393C13.2423 7.04117 13.6833 7.84183 13.8806 8.71928Z" fill="white"/>
<path d="M18.8798 10.1112C18.1357 9.36713 17.1464 8.9574 16.0942 8.9574C15.9245 8.9574 15.7564 8.96819 15.5907 8.98933L14.5671 10.0128C15.7116 10.0923 16.7769 10.5759 17.596 11.3951C17.6317 11.4307 17.6645 11.4683 17.6951 11.5073C18.1288 11.3144 18.5279 11.0417 18.8742 10.6967C18.9142 10.6583 18.9466 10.6115 18.9687 10.5582C19.0322 10.4049 18.9971 10.2286 18.8798 10.1112Z" fill="white"/>
<path d="M12.1232 11.2965L13.1436 10.2761C13.2941 9.10597 12.9217 7.88084 12.0249 6.98405C11.9479 6.90715 11.8435 6.86389 11.7348 6.86389C11.6261 6.86389 11.5216 6.90715 11.4447 6.98416C11.0923 7.33653 10.821 7.73964 10.6304 8.1702C10.6688 8.20042 10.7059 8.23279 10.7409 8.26793C11.5601 9.08696 12.0437 10.152 12.1232 11.2965Z" fill="white"/>
<path d="M14.2305 10.8213C14.0607 10.8213 13.8926 10.8321 13.7268 10.8532L12.7031 11.8767C13.8477 11.9562 14.9128 12.4398 15.732 13.2588C15.7677 13.2945 15.8007 13.3322 15.8313 13.3713C16.2672 13.1773 16.6683 12.9027 17.016 12.5552C17.0929 12.4783 17.1361 12.3739 17.1361 12.2652C17.1361 12.1563 17.0929 12.0521 17.016 11.9752C16.2719 11.231 15.2827 10.8213 14.2305 10.8213Z" fill="white"/>
<path d="M11.315 11.6335C11.315 10.5812 10.9052 9.59189 10.1611 8.84795C10.081 8.76784 9.97602 8.72778 9.87114 8.72778C9.76614 8.72778 9.66114 8.76784 9.58114 8.84795C8.14314 10.2858 8.0515 12.5681 9.306 14.1138L11.2831 12.1367C11.3041 11.971 11.315 11.8031 11.315 11.6335Z" fill="white"/>
<path d="M12.3665 12.6851C12.1967 12.6851 12.0285 12.696 11.8627 12.717L9.88574 14.694C10.5853 15.2632 11.4519 15.5727 12.3664 15.5728H12.3668C13.4187 15.5728 14.4079 15.1631 15.152 14.419C15.229 14.3421 15.2721 14.2377 15.2721 14.1289C15.2721 14.0202 15.229 13.9158 15.152 13.8389C14.4079 13.0948 13.4187 12.6851 12.3665 12.6851Z" fill="white"/>
</g>
<defs>
<clipPath id="clip0_10_3017">
<rect width="14" height="14" fill="white" transform="translate(5 5)"/>
</clipPath>
</defs>
</svg>
